<?xml version="1.0" encoding="utf-8" standalone="no"?>
<!DOCTYPE svg PUBLIC "-//W3C//DTD SVG 1.1//EN"
  "http://www.w3.org/Graphics/SVG/1.1/DTD/svg11.dtd">
<svg xmlns:xlink="http://www.w3.org/1999/xlink" width="576pt" height="432pt" viewBox="0 0 576 432" xmlns="http://www.w3.org/2000/svg" version="1.1">
 <metadata>
  <rdf:RDF xmlns:dc="http://purl.org/dc/elements/1.1/" xmlns:cc="http://creativecommons.org/ns#" xmlns:rdf="http://www.w3.org/1999/02/22-rdf-syntax-ns#">
   <cc:Work>
    <dc:type rdf:resource="http://purl.org/dc/dcmitype/StillImage"/>
    <dc:date>2023-06-15T22:15:37.506397</dc:date>
    <dc:format>image/svg+xml</dc:format>
    <dc:creator>
     <cc:Agent>
      <dc:title>Matplotlib v3.7.0, https://matplotlib.org/</dc:title>
     </cc:Agent>
    </dc:creator>
   </cc:Work>
  </rdf:RDF>
 </metadata>
 <defs>
  <style type="text/css">*{stroke-linejoin: round; stroke-linecap: butt}</style>
 </defs>
 <g id="figure_1">
  <g id="patch_1">
   <path d="M 0 432 
L 576 432 
L 576 0 
L 0 0 
z
" style="fill: #ffffff"/>
  </g>
  <g id="axes_1">
   <g id="patch_2">
    <path d="M 72 384.48 
L 518.4 384.48 
L 518.4 51.84 
L 72 51.84 
z
" style="fill: #ffffff"/>
   </g>
   <g id="matplotlib.axis_1"/>
   <g id="matplotlib.axis_2"/>
   <g id="line2d_1">
    <path d="M 92.290909 276.247372 
L 119.361689 275.873615 
L 139.411112 275.383037 
L 155.361362 274.777156 
L 168.632943 274.055973 
L 179.996989 273.220443 
L 189.940529 272.270601 
L 198.78825 271.205808 
L 206.743082 270.028723 
L 214.007954 268.732356 
L 220.664037 267.322696 
L 226.833091 265.792767 
L 232.596285 264.137339 
L 237.994207 262.358444 
L 243.108027 260.440292 
L 247.937747 258.39274 
L 252.523951 256.209384 
L 256.907225 253.878911 
L 261.128156 251.383868 
L 265.186744 248.727229 
L 269.123574 245.883581 
L 272.938647 242.851779 
L 276.631961 239.632337 
L 280.244104 236.187147 
L 283.775076 232.509604 
L 287.224875 228.593951 
L 290.593503 224.435403 
L 293.921545 219.973631 
L 295.585566 217.827937 
L 498.109091 43.407412 
L 498.109091 43.407412 
" clip-path="url(#pb1e89d84b1)" style="fill: none; stroke: #000000; stroke-width: 10; stroke-linecap: square"/>
   </g>
   <g id="patch_3">
    <path d="M 295.2 384.48 
L 295.2 51.84 
" style="fill: none; stroke: #000000; stroke-width: 0.8; stroke-linejoin: miter; stroke-linecap: square"/>
   </g>
   <g id="patch_4">
    <path d="M 72 218.16 
L 518.4 218.16 
" style="fill: none; stroke: #000000; stroke-width: 0.8; stroke-linejoin: miter; stroke-linecap: square"/>
   </g>
  </g>
 </g>
 <defs>
  <clipPath id="pb1e89d84b1">
   <rect x="72" y="51.84" width="446.4" height="332.64"/>
  </clipPath>
 </defs>
</svg>
